<svg xmlns:dc="http://purl.org/dc/elements/1.1/" xmlns:cc="http://creativecommons.org/ns#" xmlns:rdf="http://www.w3.org/1999/02/22-rdf-syntax-ns#" xmlns:svg="http://www.w3.org/2000/svg" xmlns="http://www.w3.org/2000/svg" xmlns:sodipodi="http://sodipodi.sourceforge.net/DTD/sodipodi-0.dtd" xmlns:inkscape="http://www.inkscape.org/namespaces/inkscape" viewBox="0 0 100 100" version="1.1" x="0px" y="0px">
<g transform="translate(0,-952.36216)">
<path style="color:#000000;font-style:normal;font-variant:normal;font-weight:normal;font-stretch:normal;font-size:medium;line-height:normal;font-family:sans-serif;text-indent:0;text-align:start;text-decoration:none;text-decoration-line:none;text-decoration-style:solid;text-decoration-color:#000000;letter-spacing:normal;word-spacing:normal;text-transform:none;direction:ltr;block-progression:tb;writing-mode:lr-tb;baseline-shift:baseline;text-anchor:start;white-space:normal;clip-rule:nonzero;display:inline;overflow:visible;visibility:visible;opacity:1;isolation:auto;mix-blend-mode:normal;color-interpolation:sRGB;color-interpolation-filters:linearRGB;solid-color:#000000;solid-opacity:1;fill:#000000;fill-opacity:1;fill-rule:nonzero;stroke:none;stroke-width:8;stroke-linecap:round;stroke-linejoin:miter;stroke-miterlimit:4;stroke-dasharray:none;stroke-dashoffset:0;stroke-opacity:1;marker:none;color-rendering:auto;image-rendering:auto;shape-rendering:auto;text-rendering:auto;enable-background:accumulate" d="m 49.999999,957.36216 -38.971335,22.4997 0,45.00064 1.290604,0.7457 37.680731,21.754 38.971337,-22.4997 0,-45.00064 -38.971337,-22.4997 z m 0,7.5949 15.565861,23.0246 -31.131722,0 15.565861,-23.0246 z m -8.4251,3.2361 -12.799072,18.9318 -9.995787,-5.7706 22.794859,-13.1612 z m 16.851427,0 22.793632,13.1599 -9.994495,5.7706 -12.799137,-18.9305 z m -42.230078,17.6348 9.997014,5.7707 -9.997014,20.55174 0,-26.32244 z m 67.607502,0 0,26.32374 -9.997079,-20.55304 9.995787,-5.7707 z m -49.759442,7.32 31.911382,0 -15.955691,27.63694 -15.955691,-27.63694 z m -4.280633,2.9219 15.567089,26.96074 -27.722796,-1.9681 12.155707,-24.99264 z m 40.472648,0 12.156935,24.99264 -27.722732,1.9681 15.565797,-26.96074 z m -45.617559,30.67114 22.797443,1.6199 0,11.5426 -22.797443,-13.1625 z m 50.763697,0 -22.79867,13.1625 0,-11.5426 22.79867,-1.6199 z"/>
</g>
</svg>