<svg xmlns="http://www.w3.org/2000/svg" xmlns:xlink="http://www.w3.org/1999/xlink" xml:space="preserve" style="shape-rendering:geometricPrecision;text-rendering:geometricPrecision;image-rendering:optimizeQuality;" viewBox="0 0 6.82666 6.82666" x="0px" y="0px" fill-rule="evenodd" clip-rule="evenodd">
<defs>
<style type="text/css">
  .fil1 { fill:#404040 }
  .fil0 { fill:#404040; fill-rule:nonzero }
</style>
</defs>
<g>
<g>
<g>
<path class="fil0" d="M2.14783 2.65917l-0.416969 -0.416972 -3.93701e-006 3.93701e-006c-0.0255906,-0.0255906 -0.0255906,-0.0670827 0,-0.0926693l0.000244094 -0.00023622 0.418437 -0.418437 -3.93701e-006 -3.93701e-006c0.0255906,-0.0255906 0.0670827,-0.0255906 0.0926693,0l0.00023622 0.000240157 0.417843 0.417846 3.93701e-006 -3.93701e-006c0.0255906,0.0255906 0.0255906,0.0670827 0,0.0926693 -0.00470866,0.00470866 -0.00995276,0.00855118 -0.0155354,0.0115236 -0.076878,0.0510591 -0.148976,0.110236 -0.215213,0.176476 -0.0676575,0.0676575 -0.127957,0.141433 -0.17974,0.220181l-0.0545236 -0.0358386 0.0547559 0.0360039c-0.0198819,0.0302362 -0.0605197,0.0386339 -0.0907598,0.018752 -0.00425197,-0.00279921 -0.00807087,-0.00600394 -0.0114409,-0.00953543z"/>
<path class="fil0" d="M1.98534 3.77491l-0.589811 0c-0.036189,0 -0.0655315,-0.0293386 -0.0655315,-0.0655276l0 -0.592098c0,-0.036189 0.0293425,-0.0655315 0.0655315,-0.0655315l0.591055 0c0.0361929,0 0.0655315,0.0293425 0.0655315,0.0655315 0,0.00639764 -0.00092126,0.0125827 -0.00262992,0.0184331 -0.00895276,0.0442598 -0.0158189,0.0892913 -0.0204646,0.134957 -0.00464567,0.0456693 -0.0070315,0.093248 -0.0070315,0.142654 0,0.0494252 0.00238583,0.0970236 0.0070315,0.142709 0.00482677,0.0474488 0.0120512,0.0942087 0.0215315,0.140134l0.000212598 -4.72441e-005c0.0073189,0.0354409 -0.0154764,0.0701142 -0.0509173,0.0774331 -0.00487402,0.00100787 -0.00973622,0.00144488 -0.0145079,0.00135433z"/>
<path class="fil0" d="M2.65913 4.67887l-0.416933 0.416933 3.93701e-006 3.93701e-006c-0.0255906,0.0255906 -0.0670827,0.0255906 -0.0926732,0l-0.00023622 -0.000244094 -0.418433 -0.418437 -3.93701e-006 3.93701e-006c-0.0255906,-0.0255906 -0.0255906,-0.0670827 0,-0.0926693l0.000244094 -0.00023622 0.41785 -0.417854 -3.93701e-006 -3.93701e-006c0.0255906,-0.0255866 0.0670827,-0.0255866 0.0926732,0 0.00470866,0.00470866 0.00855118,0.00995276 0.0115236,0.0155394 0.0510551,0.076878 0.110232,0.148969 0.176461,0.215205 0.0676614,0.0676575 0.141437,0.127957 0.220189,0.179744l-0.0358386 0.0545236 0.0360079 -0.054752c0.0302362,0.0198858 0.0386299,0.0605236 0.018748,0.0907598 -0.00281102,0.00426772 -0.0060315,0.00810236 -0.00957874,0.0114843z"/>
<path class="fil0" d="M3.77491 4.8411l0 0.590031c0,0.036189 -0.0293425,0.0655315 -0.0655315,0.0655315l-0.592098 0c-0.036189,0 -0.0655276,-0.0293425 -0.0655276,-0.0655315l0 -0.591067c0,-0.036189 0.0293386,-0.0655315 0.0655276,-0.0655315 0.00640157,0 0.0125866,0.000925197 0.0184331,0.00263386 0.0442598,0.00895276 0.0892913,0.0158189 0.134961,0.0204606 0.0456693,0.00464961 0.093248,0.00703543 0.142654,0.00703543 0.0494252,0 0.0970236,-0.00238583 0.142713,-0.00703543 0.0474488,-0.00482283 0.0942047,-0.0120472 0.14013,-0.0215236l-4.72441e-005 -0.000212598c0.0354409,-0.0073189 0.0701142,0.0154764 0.0774331,0.0509213 0.000988189,0.00479921 0.00142126,0.00958268 0.00135433,0.0142874z"/>
<path class="fil0" d="M4.67882 4.16748l0.41698 0.41698 3.93701e-006 -3.93701e-006c0.0255906,0.0255906 0.0255906,0.0670827 0,0.0926732l-0.000244094 0.00023622 -0.418437 0.418433 3.93701e-006 3.93701e-006c-0.0255906,0.0255906 -0.0670827,0.0255906 -0.0926693,0l-0.00023622 -0.000244094 -0.417858 -0.417854 -3.93701e-006 3.93701e-006c-0.0255906,-0.0255906 -0.0255906,-0.0670827 0,-0.0926732 0.00470866,-0.00470866 0.00995276,-0.00854724 0.0155354,-0.0115236 0.076878,-0.0510551 0.148976,-0.110236 0.215217,-0.176472 0.0676575,-0.0676575 0.127953,-0.141429 0.179736,-0.220177l0.0545236 0.0358386 -0.054752 -0.0360039c0.0198819,-0.0302362 0.0605197,-0.0386299 0.0907559,-0.018752 0.00425591,0.00279921 0.0080748,0.00600394 0.0114449,0.00953543z"/>
<path class="fil0" d="M4.8411 3.05175l0.590031 0c0.036189,0 0.0655315,0.0293425 0.0655315,0.0655315l0 0.592098c0,0.036189 -0.0293425,0.0655276 -0.0655315,0.0655276l-0.591071 0c-0.036189,0 -0.0655276,-0.0293386 -0.0655276,-0.0655276 0,-0.00640157 0.00092126,-0.0125866 0.00262992,-0.0184331 0.00895669,-0.0442598 0.0158189,-0.0892953 0.0204646,-0.134969 0.00464961,-0.0456693 0.00703543,-0.093248 0.00703543,-0.142654 0,-0.0494213 -0.00238583,-0.0970118 -0.00703543,-0.142697 -0.00482283,-0.0474488 -0.0120472,-0.0942087 -0.0215236,-0.140138l-0.000212598 4.72441e-005c-0.0073189,-0.0354409 0.0154764,-0.0701142 0.0509213,-0.0774331 0.00479921,-0.000988189 0.00958268,-0.00142126 0.0142874,-0.00135433z"/>
<path class="fil0" d="M4.16753 2.14779l0.416933 -0.416929 -3.93701e-006 -3.93701e-006c0.0255906,-0.0255906 0.0670827,-0.0255906 0.0926693,0l0.00023622 0.000240157 0.418437 0.418437 3.93701e-006 -3.93701e-006c0.0255906,0.0255906 0.0255906,0.0670827 0,0.0926693l-0.000240157 0.00023622 -0.41785 0.41785 3.93701e-006 3.93701e-006c-0.0255906,0.0255906 -0.0670827,0.0255906 -0.0926732,0 -0.00470866,-0.00470866 -0.00855118,-0.00995276 -0.0115236,-0.0155394 -0.0510512,-0.076874 -0.110224,-0.148965 -0.176461,-0.215197 -0.0676614,-0.0676614 -0.141441,-0.127961 -0.220193,-0.179748l0.0358386 -0.0545236 -0.0360079 0.054752c-0.0302362,-0.0198858 -0.0386299,-0.0605236 -0.018748,-0.0907598 0.00281102,-0.00426772 0.0060315,-0.00810236 0.00957874,-0.0114843z"/>
<path class="fil0" d="M3.11728 1.33l0.592098 0c0.036189,0 0.0655315,0.0293425 0.0655315,0.0655315l0 0.591055c0,0.0361929 -0.0293425,0.0655315 -0.0655315,0.0655315 -0.00639764,0 -0.0125827,-0.00092126 -0.0184331,-0.00262992 -0.0442559,-0.00895669 -0.0892795,-0.0158189 -0.134945,-0.0204646 -0.0456772,-0.00464567 -0.0932598,-0.0070315 -0.142673,-0.0070315 -0.0494291,0 -0.0970236,0.00238583 -0.142709,0.0070315 -0.0474449,0.00482677 -0.0942047,0.0120512 -0.140126,0.0215276l4.33071e-005 0.000212598c-0.0354409,0.0073189 -0.0701142,-0.0154803 -0.0774291,-0.0509213 -0.000992126,-0.00479921 -0.0014252,-0.00958661 -0.00135433,-0.0142913l0 -0.59002c0,-0.036189 0.0293386,-0.0655315 0.0655276,-0.0655315z"/>
</g>
<path class="fil1" d="M4.20352 2.1118c-0.131161,-0.0798071 -0.275343,-0.140343 -0.428606,-0.177677 -0.115898,-0.0282323 -0.236992,-0.0432008 -0.361583,-0.0432008 -0.124587,0 -0.245677,0.0149685 -0.361575,0.0431969 -0.153268,0.0373386 -0.297449,0.097874 -0.428614,0.177681 -0.104331,0.0634764 -0.200425,0.139146 -0.286311,0.225024 -0.0858819,0.0858858 -0.161551,0.18198 -0.225028,0.286315 -0.0798071,0.131165 -0.140343,0.275346 -0.177677,0.42861 -0.0282283,0.115898 -0.0431969,0.236988 -0.0431969,0.361575 0,0.124591 0.0149685,0.245685 0.0432008,0.361583 0.0373346,0.153264 0.0978701,0.297445 0.177677,0.428606 0.0634764,0.104331 0.13915,0.200429 0.225028,0.286307 0.0858858,0.0858819 0.18198,0.161555 0.286315,0.225031 0.131161,0.0798031 0.275343,0.140339 0.428606,0.177673 0.115898,0.0282323 0.236988,0.0432008 0.361575,0.0432008 0.124591,0 0.245685,-0.0149685 0.361583,-0.0432047 0.15326,-0.0373346 0.297437,-0.0978661 0.428598,-0.177669 0.104335,-0.0634764 0.200433,-0.13915 0.286315,-0.225031 0.0858819,-0.0858819 0.161551,-0.181976 0.225028,-0.286311 0.0798031,-0.131161 0.140339,-0.275339 0.177673,-0.428602 0.0282362,-0.115898 0.0432047,-0.236992 0.0432047,-0.361583 0,-0.124587 -0.0149685,-0.245677 -0.0432008,-0.361575 -0.0373346,-0.153264 -0.0978701,-0.297445 -0.177673,-0.428606 -0.0634764,-0.104335 -0.13915,-0.200429 -0.225031,-0.286315 -0.085878,-0.085878 -0.181976,-0.161551 -0.286307,-0.225028zm-0.790189 0.211449c0.301012,0 0.573531,0.122016 0.770795,0.31928 0.197264,0.197264 0.31928,0.469787 0.31928,0.770795 0,0.301012 -0.122016,0.573535 -0.31928,0.770799 -0.197264,0.19726 -0.469783,0.319276 -0.770795,0.319276 -0.301008,0 -0.573531,-0.122016 -0.770795,-0.319276 -0.197264,-0.197264 -0.31928,-0.469787 -0.31928,-0.770799 0,-0.301008 0.122016,-0.573531 0.31928,-0.770795 0.197264,-0.197264 0.469787,-0.31928 0.770795,-0.31928z"/>
</g>
<path class="fil1" d="M3.41333 -3.93701e-006c1.88513,0 3.41333,1.5282 3.41333,3.41333 0,1.88513 -1.5282,3.41333 -3.41333,3.41333 -1.88513,0 -3.41333,-1.5282 -3.41333,-3.41333 0,-1.88514 1.5282,-3.41333 3.41333,-3.41333zm0 0.341437c1.69656,0 3.0719,1.37533 3.0719,3.0719 0,1.69656 -1.37533,3.0719 -3.0719,3.0719 -1.69656,0 -3.0719,-1.37533 -3.0719,-3.0719 0,-1.69657 1.37533,-3.0719 3.0719,-3.0719z"/>
</g>
</svg>